<svg height="455pt" viewBox="0 0 455 455.5" width="455pt" xmlns="http://www.w3.org/2000/svg" xmlns:xlink="http://www.w3.org/1999/xlink"><linearGradient id="a"><stop offset=".322" stop-color="#a163f5"/><stop offset=".466" stop-color="#b074ee"/><stop offset=".752" stop-color="#d8a1dd"/><stop offset=".898" stop-color="#efbad3"/></linearGradient><linearGradient id="b" gradientUnits="userSpaceOnUse" x1="169.550426" x2="169.550426" xlink:href="#a" y1="427.5" y2="50.2759"/><linearGradient id="c" gradientUnits="userSpaceOnUse" x1="354.550426" x2="354.550426" xlink:href="#a" y1="427.5" y2="50.2759"/><linearGradient id="d" gradientUnits="userSpaceOnUse" x1="388.750426" x2="388.750426" xlink:href="#a" y1="427.5" y2="50.2759"/><linearGradient id="e" gradientUnits="userSpaceOnUse" x1="320.450426" x2="320.450426" xlink:href="#a" y1="427.5" y2="50.2759"/><linearGradient id="f" gradientUnits="userSpaceOnUse" x1="227.403026" x2="227.403026" xlink:href="#a" y1="427.5" y2="50.2759"/><path d="m169.550781 211.398438c58.398438 0 105.699219-47.296876 105.699219-105.699219 0-58.398438-47.300781-105.699219-105.699219-105.699219-58.398437 0-105.699219 47.300781-105.699219 105.699219.097657 58.402343 47.300782 105.601562 105.699219 105.699219zm0-191.398438c47.300781 0 85.699219 38.398438 85.699219 85.699219s-38.398438 85.699219-85.699219 85.699219-85.699219-38.398438-85.699219-85.699219c.097657-47.300781 38.398438-85.597657 85.699219-85.699219zm0 0" fill="url(#b)"/><path d="m354.550781 355.398438c-5.5 0-10 4.5-10 10v45.101562c0 5.5 4.5 10 10 10s10-4.5 10-10v-45.101562c0-5.5-4.5-10-10-10zm0 0" fill="url(#c)"/><path d="m388.75 355.398438c-5.5 0-10 4.5-10 10v45.101562c0 5.5 4.5 10 10 10s10-4.5 10-10v-45.101562c0-5.5-4.5-10-10-10zm0 0" fill="url(#d)"/><path d="m320.449219 355.398438c-5.5 0-10 4.5-10 10v45.101562c0 5.5 4.5 10 10 10s10-4.5 10-10v-45.101562c0-5.5-4.5-10-10-10zm0 0" fill="url(#e)"/><path d="m425.851562 246.5h-25.902343v-20.898438c0-9.101562-7.296875-16.402343-16.398438-16.402343h-57.898437c-9.101563 0-16.402344 7.300781-16.402344 16.402343v20.898438h-25.898438c-10.101562 0-19.402343 5.300781-24.601562 13.898438-26.699219-16.597657-57.597656-25.296876-89-25.199219h-.300781c-45.796875.101562-88.296875 17.902343-119.796875 50.300781-32 32.699219-49.5 77.398438-49.402344 125.898438 0 5.5 4.5 10 10 10l260.300781-.5v3.300781c0 17.300781 14 31.300781 31.300781 31.300781h105.398438c17.300781 0 31.300781-14 31.300781-31.300781v-123.199219c14.199219-7 20.101563-24.300781 13-38.5-4.800781-9.800781-14.800781-16-25.699219-16zm-96.699218-17.300781h50.796875v17.300781h-50.796875zm-45.800782 37.300781h142.5c4.800782 0 8.699219 3.898438 8.699219 8.699219 0 2.902343-1.398437 5.601562-3.800781 7.199219-.699219-.199219-1.5-.296876-2.199219-.296876-2.101562 0-4.101562.699219-5.800781 1.796876h-136.398438c-1.699218-1.199219-3.699218-1.796876-5.800781-1.796876-.699219 0-1.5.097657-2.199219.296876-4-2.699219-5-8.097657-2.300781-12.097657 1.699219-2.402343 4.398438-3.800781 7.300781-3.800781zm-262.800781 134.800781c2.101563-39.300781 17.398438-75.199219 43.398438-101.902343 27.703125-28.5 65.203125-44.199219 105.5-44.199219h.300781c30.699219-.199219 60.699219 9.300781 85.699219 27 2.101562 8.101562 7.601562 14.902343 15.101562 18.699219v99.902343zm386.699219 34.199219h-105.300781c-6.199219 0-11.296875-5-11.296875-11.300781v-120.199219h128v120.199219c-.101563 6.199219-5.203125 11.199219-11.402344 11.300781zm0 0" fill="url(#f)"/></svg>