<?xml version="1.0" encoding="iso-8859-1"?>
<!-- Generator: Adobe Illustrator 21.0.0, SVG Export Plug-In . SVG Version: 6.00 Build 0)  -->
<svg version="1.1" id="Capa_1" xmlns="http://www.w3.org/2000/svg" xmlns:xlink="http://www.w3.org/1999/xlink" x="0px" y="0px"
	 viewBox="0 0 512 512" style="enable-background:new 0 0 512 512;" xml:space="preserve">
<g id="XMLID_847_">
	<g id="XMLID_848_">
		<g id="XMLID_849_">
			<path style="fill:#627687;" d="M279.297,401.776h116.151c19.474,0,35.776-14.765,37.698-34.144l13.916-140.312
				c6.433-64.859-44.512-121.106-109.689-121.106h0c-65.177,0-116.122,56.247-109.689,121.106L241.6,367.632
				C243.522,387.011,259.823,401.776,279.297,401.776z"/>
			<path style="fill:#455E6D;" d="M438.823,245.441l3.488-26.25c0.562-4.23-2.411-8.115-6.642-8.677
				c-4.226-0.56-8.114,2.412-8.676,6.641l-3.758,28.286H438.823z"/>
			<path style="fill:#3A82D0;" d="M446.705,453.434v48.264c0,5.687-4.615,10.302-10.302,10.302H228.038v-58.566
				c0-31.06,16.947-58.133,42.083-72.514c1.174-0.67,2.359-1.319,3.564-1.926c11.353-5.8,24.209-9.055,37.828-9.055h51.705
				c15.37,0,29.782,4.162,42.155,11.414C430.098,395.847,446.705,422.683,446.705,453.434z"/>
			<path style="fill:#0D73CE;" d="M285.121,418.264v83.434c0,3.709-0.896,7.211-2.483,10.302h-54.599v-58.566
				c0-31.06,16.947-58.133,42.083-72.514c1.174-0.67,2.359-1.319,3.564-1.926C280.928,390.356,285.121,403.831,285.121,418.264z"/>
			<path style="fill:#0D73CE;" d="M446.706,453.431v48.267c0,5.69-4.612,10.302-10.302,10.302h-7.384v-58.569
				c0-30.746-16.607-57.587-41.332-72.078c-12.376-7.254-26.781-11.416-42.154-11.416h17.685c15.373,0,29.778,4.162,42.154,11.416
				C430.099,395.844,446.706,422.685,446.706,453.431z"/>
			<path style="fill:#EBEEF2;" d="M410.556,457.782V512H264.187v-54.218c0,0,8.53-2.596,20.933-3.039
				c14.577-0.525,34.501,1.926,52.251,15.051C370.255,445.502,410.556,457.782,410.556,457.782z"/>
			<path style="fill:#D3D8DF;" d="M285.121,454.743v46.956c0,3.709-0.896,7.211-2.483,10.302h-18.45v-54.218
				C264.187,457.782,272.717,455.185,285.121,454.743z"/>
			<path style="fill:#D3D8DF;" d="M378.902,462.724c-4.268,0-7.726-3.459-7.726-7.726v-77.364c0-4.267,3.459-7.726,7.726-7.726
				s7.726,3.459,7.726,7.726v77.364C386.628,459.265,383.17,462.724,378.902,462.724z"/>
			<path style="fill:#D3D8DF;" d="M295.844,462.724c-4.268,0-7.726-3.459-7.726-7.726v-77.364c0-4.267,3.459-7.726,7.726-7.726
				s7.726,3.459,7.726,7.726v77.364C303.57,459.265,300.111,462.724,295.844,462.724z"/>
			<path style="fill:#F8C298;" d="M337.373,401.776L337.373,401.776c-10.644,0-19.273-8.629-19.273-19.273v-54.064h38.546v54.064
				C356.646,393.147,348.017,401.776,337.373,401.776z"/>
			<g id="XMLID_850_">
				<g id="XMLID_851_">
					<circle style="fill:#F8C298;" cx="424.761" cy="263.314" r="25.949"/>
				</g>
				<g id="XMLID_852_">
					<circle style="fill:#F8C298;" cx="249.985" cy="263.314" r="25.949"/>
				</g>
			</g>
			<path style="fill:#FFD6C0;" d="M255.611,189.973l12.364,98.983c4.372,35.001,34.124,61.268,69.398,61.268h0
				c35.273,0,65.025-26.267,69.398-61.268l12.364-98.983H255.611z"/>
			<g id="XMLID_853_">
				<path style="fill:#455E6D;" d="M299.386,269.554c-4.169,0-7.605-3.321-7.719-7.515l-0.113-4.114
					c-0.117-4.266,3.246-7.818,7.512-7.935c4.274-0.115,7.819,3.246,7.935,7.512l0.113,4.114c0.117,4.266-3.246,7.818-7.512,7.935
					C299.53,269.553,299.457,269.554,299.386,269.554z"/>
				<path style="fill:#455E6D;" d="M375.464,269.554c-4.17,0-7.606-3.322-7.719-7.517l-0.112-4.114
					c-0.116-4.266,3.249-7.817,7.514-7.933c0.07-0.002,0.142-0.003,0.213-0.003c4.17,0,7.606,3.322,7.719,7.517l0.112,4.114
					c0.116,4.266-3.248,7.817-7.514,7.933C375.606,269.553,375.536,269.554,375.464,269.554z"/>
			</g>
			<path style="fill:#ED7A98;" d="M337.373,306.007c-11.59,0-22.573-5.614-29.382-15.018c-2.503-3.456-1.73-8.287,1.726-10.79
				c3.456-2.502,8.286-1.729,10.789,1.726c3.912,5.403,10.218,8.628,16.867,8.628s12.955-3.225,16.867-8.628
				c2.503-3.456,7.335-4.227,10.789-1.726c3.457,2.503,4.229,7.333,1.726,10.79C359.946,300.393,348.962,306.007,337.373,306.007z"
				/>
			<g id="XMLID_854_">
				<path style="fill:#0D73CE;" d="M418.282,443.596V512h-15.453v-68.404c0-4.265,3.462-7.726,7.726-7.726
					C414.82,435.87,418.282,439.331,418.282,443.596z"/>
			</g>
			<path style="fill:#627687;" d="M242.988,180.45v28.552c0,0,53.517,19.046,92.063-16.247c0,0,14.801,47.056,78.486,56.756
				c4.865,0.741,9.398-2.654,10.046-7.532l8.175-61.53H242.988z"/>
			<g id="XMLID_855_">
				<circle style="fill:#ED7A98;" cx="382.482" cy="288.056" r="7.013"/>
				<circle style="fill:#ED7A98;" cx="292.264" cy="288.056" r="7.013"/>
			</g>
		</g>
		<g id="XMLID_856_">
			<g id="XMLID_857_">
				<path style="fill:#5F9EEB;" d="M272.759,418.264v83.434c0,5.69-4.612,10.302-10.302,10.302H25.979
					c-5.69,0-10.302-4.612-10.302-10.302v-83.434c0-33.665,27.291-60.956,60.956-60.956h135.17
					C245.468,357.308,272.759,384.599,272.759,418.264z"/>
				<rect x="100.322" y="357.306" style="fill:#EBEEF2;" width="90.705" height="154.694"/>
				<path style="fill:#3A82D0;" d="M272.752,418.251v83.445c0,5.69-4.612,10.302-10.302,10.302h-10.468v-93.736
					c0-33.659-27.297-60.956-60.956-60.956h20.781C245.466,357.306,272.752,384.592,272.752,418.251z"/>
				<g id="XMLID_858_">
					<path style="fill:#E39F6E;" d="M145.674,391.628L145.674,391.628c-11.475,0-20.776-9.302-20.776-20.776V312.57h41.553v58.282
						C166.451,382.326,157.149,391.628,145.674,391.628z"/>
					<path style="fill:#455E6D;" d="M35.758,231.295h219.833l5.798-28.281c15.016-73.248-40.943-141.842-115.714-141.842h0
						c-74.771,0-130.73,68.594-115.714,141.842L35.758,231.295z"/>
					<g id="XMLID_859_">
						<g id="XMLID_860_">
							<circle style="fill:#E39F6E;" cx="239.879" cy="242.365" r="27.973"/>
						</g>
						<g id="XMLID_861_">
							<circle style="fill:#E39F6E;" cx="51.469" cy="242.365" r="27.973"/>
						</g>
					</g>
					<path style="fill:#F8C298;" d="M145.674,336.056L145.674,336.056c-38.025,0-70.098-28.316-74.811-66.048L56.947,158.602
						h177.454l-13.916,111.406C215.772,307.74,183.699,336.056,145.674,336.056z"/>
					<g id="XMLID_862_">
						<path style="fill:#355260;" d="M104.724,248.49c-4.17,0-7.606-3.322-7.719-7.516l-0.121-4.434
							c-0.117-4.266,3.247-7.817,7.513-7.934c4.258-0.113,7.818,3.247,7.934,7.513l0.121,4.434c0.117,4.266-3.247,7.817-7.513,7.934
							C104.867,248.489,104.795,248.49,104.724,248.49z"/>
						<path style="fill:#355260;" d="M186.738,248.49c-4.169,0-7.605-3.321-7.719-7.514l-0.122-4.434
							c-0.118-4.266,3.245-7.818,7.511-7.936c4.291-0.111,7.819,3.246,7.936,7.511l0.122,4.434c0.118,4.266-3.245,7.818-7.511,7.936
							C186.882,248.489,186.809,248.49,186.738,248.49z"/>
					</g>
					<path style="fill:#E39F6E;" d="M145.675,287.787c-12.3,0-23.959-5.959-31.186-15.94c-2.503-3.456-1.73-8.287,1.726-10.79
						c3.457-2.503,8.287-1.729,10.789,1.726c4.331,5.98,11.311,9.551,18.671,9.551c7.36,0,14.34-3.57,18.671-9.551
						c2.503-3.456,7.334-4.228,10.789-1.726c3.457,2.503,4.229,7.333,1.726,10.79C169.633,281.828,157.974,287.787,145.675,287.787z
						"/>
				</g>
				<g id="XMLID_863_">
					<path style="fill:#3A82D0;" d="M73.048,436.714V512H57.595v-75.286c0-4.265,3.462-7.726,7.726-7.726
						C69.586,428.988,73.048,432.449,73.048,436.714z"/>
					<path style="fill:#3A82D0;" d="M230.83,436.714V512h-15.453v-75.286c0-4.265,3.461-7.726,7.726-7.726
						C227.369,428.988,230.83,432.449,230.83,436.714z"/>
				</g>
			</g>
			<path style="fill:#455E6D;" d="M41.181,166.303c0,0,18.762,18.61,69.283,19.963c3.201,0.086,5.851-2.481,5.851-5.683v-7.498
				c0,0,18.36,12.049,57.267,13.175c3.209,0.093,5.871-2.472,5.871-5.682v-4.254c0,0,15.137,9.239,60.503,9.974
				c3.178,0.051,5.791-2.504,5.791-5.683v-31.522H41.181V166.303z"/>
			<path style="fill:#355260;" d="M240.055,194.024c-0.074,0-0.149-0.001-0.223-0.002c-27.722-0.449-44.757-3.986-54.314-6.967
				c-0.633,1.14-1.438,2.195-2.402,3.132c-2.59,2.517-6.168,3.897-9.758,3.794c-23.544-0.682-40.105-5.241-50.029-9.06
				c-0.67,1.967-1.801,3.763-3.338,5.259c-2.624,2.554-6.101,3.892-9.752,3.808c-32.368-0.87-52.659-8.553-63.982-14.845
				c-3.729-2.073-5.072-6.777-3-10.507c2.072-3.73,6.775-5.073,10.507-3.001c9.579,5.324,26.805,11.803,54.825,12.839v-5.392
				c0-2.84,1.557-5.45,4.056-6.799c2.496-1.349,5.535-1.219,7.909,0.339c0.126,0.08,16.774,10.457,51.172,11.84v-2.141
				c0-2.836,1.456-5.506,3.949-6.856c2.476-1.341,5.388-1.289,7.753,0.228c0.951,0.51,15.543,7.958,54.594,8.837v-12.229
				c0-4.267,3.459-7.726,7.726-7.726c4.268,0,7.726,3.459,7.726,7.726v14.311c0,3.62-1.422,7.012-4.003,9.552
				C246.937,192.659,243.601,194.024,240.055,194.024z"/>
		</g>
	</g>
	<g id="XMLID_864_">
		<path style="fill:#EB5777;" d="M483.518,0H326.851c-7.072,0-12.805,5.733-12.805,12.805v102.521
			c0,7.072,5.733,12.805,12.805,12.805h27.541l11.708,15.136c5.126,6.627,15.131,6.627,20.257,0l11.708-15.136h85.452
			c7.072,0,12.805-5.733,12.805-12.805V12.805C496.323,5.733,490.59,0,483.518,0z"/>
		<g id="XMLID_865_">
			<path style="fill:#EBEEF2;" d="M400.732,54.839h-7v-7c0-4.267-3.459-7.726-7.726-7.726c-4.268,0-7.726,3.459-7.726,7.726v7
				h-6.999c-4.268,0-7.726,3.459-7.726,7.726s3.459,7.726,7.726,7.726h6.999v7c0,4.267,3.459,7.726,7.726,7.726
				c4.268,0,7.726-3.459,7.726-7.726v-7h7c4.268,0,7.726-3.459,7.726-7.726S405,54.839,400.732,54.839z"/>
			<path style="fill:#EBEEF2;" d="M447.035,79.809h-1.654V37.595c0-2.701-1.41-5.207-3.721-6.607
				c-2.312-1.401-5.185-1.493-7.578-0.243l-9.818,5.122c-3.784,1.973-5.251,6.64-3.277,10.424c1.722,3.302,5.495,4.839,8.942,3.866
				v29.653h-1.654c-4.268,0-7.726,3.459-7.726,7.726s3.459,7.726,7.726,7.726h18.761c4.268,0,7.726-3.459,7.726-7.726
				S451.302,79.809,447.035,79.809z"/>
		</g>
	</g>
</g>
<g>
</g>
<g>
</g>
<g>
</g>
<g>
</g>
<g>
</g>
<g>
</g>
<g>
</g>
<g>
</g>
<g>
</g>
<g>
</g>
<g>
</g>
<g>
</g>
<g>
</g>
<g>
</g>
<g>
</g>
</svg>
