<svg xmlns="http://www.w3.org/2000/svg" viewBox="0 0 88.8 87.2"><defs><style>.cls-1{fill:#3d3836;}</style></defs><g id="Capa_2" data-name="Capa 2"><g id="Movil"><path class="cls-1" d="M37,.6c-1.1.8-1.6,3-1.2,4.5.8,3.1,4.2,4.7,6.7,3.3s2.8-4.3,1.3-4.8a14.4,14.4,0,0,1-1.7-1.2,2.3,2.3,0,0,0-1.6-.7A3.4,3.4,0,0,0,39,4.9a2.2,2.2,0,0,1-.3,1.4c-.5,0-1.3-1.7-1.3-2.5a2.7,2.7,0,0,1,1.3-2.4A.7.7,0,0,0,38.5,0,1.9,1.9,0,0,0,37,.6Z"/><path class="cls-1" d="M28.1,4.7c-.3.2-.4.8-.4,1.8V8l-.9-.7c-1.1-.8-2.2-.7-1.7.2a32.6,32.6,0,0,0,2.6,3.2c1.7,1.9,2.6,2.7,3.1,2.7s.9-1-.5-2.6S29.1,9.2,29.3,8a8.4,8.4,0,0,1,.3-1.3,36.9,36.9,0,0,1,5.3,2.9c1,.7,2.2.8,2.2.1s-2-2.5-5-3.9S28.8,4.3,28.1,4.7Z"/><path class="cls-1" d="M57.3,8c-2.4,1.4-7.4,6.9-8.1,9s.2,3,4.5,2.6l2.5-.2L55.7,21l-.5,1.5H51c-4.8,0-7.5.6-12.5,2.7a9.8,9.8,0,0,1-5,1.3,23.7,23.7,0,0,0-12.4,4A24.5,24.5,0,0,0,13.5,41L13,42.8l-3.7-.2c-3.9-.2-5.5.1-5.5,1S5,44.7,9,44.9l3.8.2v1.5a15.4,15.4,0,0,0,.4,3l.5,1.5-1.4.4c-1.8.5-3,1.3-3,2s.1.6,1.3.4c4.6-.7,4.6-.7,5.1.5a9.7,9.7,0,0,1,.3,3.9l-.2,2.9-.9-1.3c-2.3-3.4-4.9-3.1-7,.7s-2.5,11.7.5,17.5,5.1,7.6,8.2,7.8,1.9.1,2.5-.7a3.3,3.3,0,0,0,.7-1.3c0-.3.6-.9,1.3-1.4l1.3-.9,1.8.9c3.4,1.7,8.7,2.7,16.1,3s9.8-.1,14.2-1.6l3.4-1.1,2.2,1.1a20.7,20.7,0,0,1,3.2,1.9,6.7,6.7,0,0,0,7.2.7c3.3-1.7,4.1-2.5,5.8-6A67.7,67.7,0,0,0,79,74.1c.9-2.8,1-3.3,1-7.1s0-4.3-.9-5.7a14.6,14.6,0,0,0-1.8-2.6c-.8-.9-.9-1.4-1.1-3.7l-.3-2.6H77l3.9.5c2.8.5,6,.5,7.4,0s.6-1.4-.3-1.9-6.5-1.1-10.8-1.2c-1.4,0-1.5,0-1.6-.9s-1.1-4.3-1.3-4.9.3-.6,2.9-1.2l3.7-.8a1.3,1.3,0,0,0,.3-2.1c-.6-.7-1.2-.7-6.7-.1l-1.6.2-1.2-2.3c-3.9-7.8-8.2-12.3-13.2-13.8a3,3,0,0,1-1.3-.6,6.4,6.4,0,0,1,.5-1.6l.5-1.3,2,1.9a64.5,64.5,0,0,0,7,5.8c.4,0,.8-.6,4.8-6.6s3.7-5.7,3.7-6.8-.1-1.4-.4-1.5a36.4,36.4,0,0,0-5.8.5,36.4,36.4,0,0,1-5.5.5c-.1-.1.5-.7,1.3-1.4s2.3-2.7,1.6-3.3-2.2.2-4.4,2.3l-2.2,1.9a8.8,8.8,0,0,1-.2-2.5C60.1,7.9,59.2,7,57.3,8Zm0,18.1a13.5,13.5,0,0,1,6.2,4.1,30.3,30.3,0,0,1,5.3,8.5l1.1,2.4-2.1,1a62.5,62.5,0,0,0-9.3,6.1c-.6.6-.9,1.1-.8,1.4s2.5,0,7.3-2.3c6.6-3,6.1-3,6.7-.8a11.6,11.6,0,0,1,.6,2.6V50l-3.8.4c-6.1.6-10.5,1.9-10.5,3.1s1.3.6,5.8-.1a41.4,41.4,0,0,1,6.4-.7H73v4.5l-1.5.6c-2.3.9-4.8,3.6-6.8,7.4-1,2-1.9,3.3-2.2,3.3s-4.2,3-4.2,4.5.2.5,1.5-.4l1.7-.9a2.8,2.8,0,0,1,.4,1.4,4.1,4.1,0,0,0,.5,1.6c.1.1.6-.8,1-1.9,1.2-3.5,5.2-9.2,7.8-11.1s4.1-1,5.1,2.4.2,9.1-2.4,14.5c-1.6,3.5-3,5-5.1,5.6s-4.7-.3-5.8-2.9-.7-1.4-.8-.6-.4,1.1-2,.1a2.7,2.7,0,0,0-2.2-.7c-5.5,1.4-7.3,1.6-14,1.6S32.7,81.2,27,79.4s-5.4-1.5-6.5-1a3.4,3.4,0,0,0-2.1,3.2c-.3,1.7-.9,2.5-1.9,2.5s-2.8-1.4-4.7-4.5S8.8,74,8.8,69c0-3.4.1-4.2.7-5.4a7.6,7.6,0,0,1,1.4-2.1c.6-.5.6-.5,1.2,0s2.2,3.4,3.1,6,3.4,8.9,3.7,8.9-.1-3.5-.6-5.4a5.2,5.2,0,0,1-.2-1.9c.3-.4,2.2.8,3.3,2s1.3,1.2,1.4,1.1A7.2,7.2,0,0,0,22,70a5.9,5.9,0,0,0-2.1-2.6c-1-.4-1.1-.5-1.1-2.5s.1-3.1.2-4.2l.3-2.2.8.6a14.8,14.8,0,0,0,5.6,1.6c.7-.1.4-.5-2.3-2.8s-5.5-5.1-6.8-7.7a9.6,9.6,0,0,1-.8-4.4,8,8,0,0,1,1.3-5.1,21.7,21.7,0,0,1,4-5.3c3.8-3.9,6.2-4.9,11.5-4.9,2.5,0,2.9.1,5.5,1.3a15.8,15.8,0,0,1,8.1,8A26.6,26.6,0,0,1,48,44.6l1.5,4.8c1.1,3.5,1.4,3.1,1.2-1.7a16.2,16.2,0,0,0-1.2-6.4,43.6,43.6,0,0,0-2.3-4.8,30.4,30.4,0,0,0-6.7-7.3c-.8-.7-1.4-1.3-1.3-1.5s4.3-1.6,6.6-2S54.9,25.3,57.3,26.1Z"/><path class="cls-1" d="M50,28.5c-1.7.8-2.1,1.3-2.1,2.6s2.3,2.7,4.6,2.7A30.9,30.9,0,0,1,56.8,35c4.7,1.5,5.8,1.4,6.6-.2s0-3.3-1.9-4.5a23.7,23.7,0,0,0-7.8-2.4A6.2,6.2,0,0,0,50,28.5Z"/><path class="cls-1" d="M54,37.1c-1.8,1-2,3.1-.4,4.6s3.5,1.1,4.3.2a2.1,2.1,0,0,0,.4-2.7C57.5,37.2,55.6,36.3,54,37.1Z"/><path class="cls-1" d="M19.5,9.5a2.5,2.5,0,0,0-.7,3.2,3.4,3.4,0,0,0,2.7,1.2c.2-.1.9.5,1.4,1.4s1.1,1.6.5,2.4-.3,1.4.4,1.4,2.7-1.3,3.8-2.4.8-3-1.1-1.7l-1,.6-1-1.4c-.9-1.1-.9-1.3-.6-2.3C24.8,9,21.8,7.4,19.5,9.5Z"/><path class="cls-1" d="M12.5,15.2c-1.7,1.2-2.2,4.6-.9,6.5s5.2,3.2,7.2,1.9a4.4,4.4,0,0,0,0-7.7c-2.2-1.3-4.7-.2-4.7,2s1,2.3,2,2.1,1.2-1.2.4-1.2-.9-.9-.5-1.5,1.4-.3,2.5.7.3,4.3-1.9,4.3a4,4,0,0,1-3.6-2c-.7-1.4-.7-1.6.2-3.6S14,14.1,12.5,15.2Z"/><path class="cls-1" d="M4.6,18.5,2.9,20c-.9,1.1-1,1.2-1.3.6S0,19.9,0,20.7s.6,1.5,4.3,6.9c2.2,3.2,3,4,3.7,4s1.1-.6.5-1.4-.4-.8.6-1.5,2.4-2.1,2.4-3.7a3.2,3.2,0,0,0-1.1-2.6,4.7,4.7,0,0,1-1.1-1.8,3.4,3.4,0,0,0-.9-1.4,2.1,2.1,0,0,0-1.9-1A5,5,0,0,0,4.6,18.5Z"/></g></g></svg>