<svg id="SvgjsSvg1001" width="288" height="288" xmlns="http://www.w3.org/2000/svg" version="1.1" xmlns:xlink="http://www.w3.org/1999/xlink" xmlns:svgjs="http://svgjs.com/svgjs"><defs id="SvgjsDefs1002"></defs><g id="SvgjsG1008" transform="matrix(1,0,0,1,0,0)"><svg xmlns="http://www.w3.org/2000/svg" viewBox="0 0 27 32" width="288" height="288"><g data-name="Capa 2" fill="#52cc99" class="color000 svgShape"><path fill="#8b5cf6" d="M11.2.2a2.3 2.3 0 00-.3 1.7c.2 1.1 1.3 1.7 2 1.2s.9-1.6.4-1.8L12.8.9 12.3.6c-.3.2-.4.6-.4 1.2a1.2 1.2 0 01-.1.5c-.2 0-.4-.6-.4-.9a1.1 1.1 0 01.4-.9c.2-.1.2-.4-.1-.5zM8.6 1.7a1 1 0 00-.2.7v.5l-.3-.2c-.4-.3-.7-.3-.5.1a6.3 6.3 0 00.8 1.1c.5.7.7 1 .9 1s.3-.4-.2-1a1.2 1.2 0 01-.3-1A2 2 0 019 2.4l1.6 1.1c.3.3.7.3.7 0s-.6-.8-1.5-1.4S8.8 1.6 8.6 1.7zM17.4 2.9A10.7 10.7 0 0015 6.2c-.3.9 0 1.1 1.3 1h.8l-.2.6v.6H15.5a7 7 0 00-3.8 1 3.4 3.4 0 01-1.5.4 7 7 0 00-3.8 1.5A9.3 9.3 0 004.1 15l-.2.7H2.8c-1.2 0-1.6.1-1.6.4s.3.4 1.5.5H3.9v.6A4.1 4.1 0 004 18.2l.2.6H3.7c-.5.2-.9.5-.9.7s.1.2.4.2 1.4-.3 1.6.1a5.3 5.3 0 01.1 1.5v1L4.5 22c-.7-1.3-1.5-1.2-2.1.2a9.1 9.1 0 00.1 6.5c.8 1.8 1.6 2.7 2.5 2.8s.6 0 .8-.3a1.4 1.4 0 00.2-.4c0-.1.2-.3.4-.5l.4-.4.6.4a10.6 10.6 0 004.8 1.1 10 10 0 004.4-.6l1-.4.7.4a3.5 3.5 0 01.9.7 1.7 1.7 0 002.2.2 3.4 3.4 0 001.8-2.2 20.9 20.9 0 00.8-2.3 6.6 6.6 0 00.3-2.6c0-1.5 0-1.6-.2-2.1a8.8 8.8 0 00-.6-1 1.9 1.9 0 01-.3-1.3v-1h.3l1.2.2a4 4 0 002.2 0c.3-.1.2-.5 0-.7a10.6 10.6 0 00-3.3-.4c-.4 0-.5 0-.5-.3s-.3-1.6-.4-1.9.1-.2.9-.4l1.1-.3a.6.6 0 00.1-.8c-.2-.2-.4-.2-2 0h-.5l-.4-.9c-1.2-2.8-2.5-4.5-4-5l-.4-.3a2.2 2.2 0 00.1-.6l.2-.4.6.7 2.1 2.1c.2 0 .3-.2 1.5-2.4S23 5.8 23 5.4s0-.5-.1-.6L21.1 5l-1.6.2c-.1 0 .1-.2.4-.5s.7-1 .4-1.2-.6.1-1.3.8l-.7.7V4.1Q18.3 2.3 17.4 2.9zm0 6.7a3.6 3.6 0 011.9 1.5 11.1 11.1 0 011.6 3.1l.4.9-.7.4a13 13 0 00-2.8 2.2.9.9 0 00-.3.5c.2.2.8 0 2.3-.8s1.8-1.1 2-.4a5.8 5.8 0 01.2 1v.3l-1.1.2c-1.9.2-3.2.7-3.2 1.1s.3.3 1.7 0l2-.3h.8v1.6l-.5.3a5.2 5.2 0 00-2.1 2.7c-.3.7-.5 1.2-.6 1.2s-1.3 1.1-1.3 1.6 0 .2.4-.1l.6-.3a1.2 1.2 0 01.1.5 3.5 3.5 0 00.1.6c.1 0 .2-.3.3-.7a11.7 11.7 0 012.4-4.1c.7-.6 1.3-.4 1.6.9a9.8 9.8 0 01-.8 5.3c-.5 1.3-.9 1.8-1.5 2s-1.4-.1-1.8-1-.2-.5-.2-.2-.2.4-.6 0-.5-.3-.7-.2a11.3 11.3 0 01-4.2.5 12.1 12.1 0 01-5.3-.8c-1.5-.5-1.6-.5-2-.3s-.5.5-.6 1.1-.3.9-.6.9-.8-.5-1.4-1.6a6.5 6.5 0 01-.9-3.9 4.8 4.8 0 01.2-2 2.1 2.1 0 01.4-.7c.2-.2.2-.2.4 0a5.9 5.9 0 01.9 2.2C4.9 25.9 5.7 28 5.7 28a7.6 7.6 0 00-.1-2 2.3 2.3 0 01-.1-.7c.1-.1.7.3 1 .8l.4.4c.1 0-.1-.4-.2-.8a3.6 3.6 0 00-.6-1c-.4-.1-.4-.2-.4-.9s.1-1.1.1-1.6v-.7l.2.2a3.7 3.7 0 001.7.5c.2 0 .1-.1-.7-.9a6.9 6.9 0 01-2-2.9 3.5 3.5 0 01-.3-1.6 3.3 3.3 0 01.4-1.9A6.7 6.7 0 016.4 13c1.2-1.4 1.9-1.8 3.5-1.8a2.3 2.3 0 011.7.5A5 5 0 0114 14.6a12 12 0 01.6 1.7c.1.4.3 1.2.4 1.8s.5 1.2.4-.6a5.6 5.6 0 00-.4-2.3 7.6 7.6 0 00-.6-1.8 10.9 10.9 0 00-2.1-2.7l-.4-.5a8.1 8.1 0 012-.8A8 8 0 0117.4 9.6z" class="colord61dc9 svgShape"></path><path fill="#8b5cf6" d="M15.2 10.5c-.5.3-.6.4-.6.9s.7 1 1.4 1l1.3.4c1.4.6 1.7.6 2 0a1.5 1.5 0 00-.6-1.7 8.5 8.5 0 00-2.4-.9A1.4 1.4 0 0015.2 10.5zM16.4 13.6a1.2 1.2 0 00-.1 1.7.9.9 0 001.3.1c.2-.4.3-.6.1-1S16.9 13.3 16.4 13.6zM5.9 3.5a1.1 1.1 0 00-.2 1.2c.1.2.6.5.8.4s.3.2.5.5.3.6.1.9S7 7 7.2 7a3.6 3.6 0 001.2-.9c.5-.6.2-1.1-.3-.6s-.3.3-.4.2l-.3-.5c-.2-.4-.2-.5-.1-.8S6.6 2.7 5.9 3.5zM3.8 5.6A2.3 2.3 0 003.5 8a1.7 1.7 0 002.2.7 1.9 1.9 0 000-2.9.9.9 0 00-1.4.8c0 .4.3.8.6.7s.3-.4.1-.4-.3-.3-.1-.5.4-.2.7.2A1 1 0 015 8.2a1.3 1.3 0 01-1.1-.8c-.2-.5-.2-.6.1-1.3S4.2 5.2 3.8 5.6zM1.4 6.8l-.5.5c-.3.4-.3.5-.4.3S0 7.3 0 7.6a12.5 12.5 0 001.3 2.5c.7 1.2.9 1.5 1.1 1.5s.4-.2.2-.5-.2-.3.2-.6a1.4 1.4 0 00.7-1.3 1.9 1.9 0 00-.3-1 1.5 1.5 0 01-.4-.6A2.1 2.1 0 002.6 7 .9.9 0 002 6.7z" class="colord61dc9 svgShape"></path></g></svg></g></svg>