<svg id="Capa_1" enable-background="new 0 0 497 497" height="512" viewBox="0 0 497 497" width="512" xmlns="http://www.w3.org/2000/svg"><path d="m397.613 348.357v-.459c0-36.596-29.667-66.263-66.263-66.263l-66.269-.001h-99.4l-66.267.004c-36.596 0-66.263 29.667-66.263 66.263v99.4c0 9.15-.866 16.567 8.284 16.567h356.179v-115.511z" fill="#5893d4"/><path d="m331.35 281.635h-23c36.596 0 66.263 29.667 66.263 66.263v.459 115.51h23v-115.51-.459c0-36.596-29.667-66.263-66.263-66.263z" fill="#4876c7"/><path d="m265.082 281.633c0 27.449-22.251 49.7-49.7 49.7s-49.7-22.251-49.7-49.7v-73.133h99.4z" fill="#feb19d"/><path d="m314.782 99.4c9.15 0 16.567 7.417 16.567 16.567v33.137c0 9.15-7.417 16.567-16.567 16.567l-198.8-.001c-9.15 0-16.567-7.417-16.567-16.567v-33.133c0-9.149 7.417-16.567 16.567-16.567z" fill="#feb19d"/><path d="m298.215 41.417c0-22.874-18.543-41.417-41.417-41.417h-82.832c-22.874 0-41.417 18.543-41.417 41.417l.001 124.252c0 45.747 37.085 82.833 82.832 82.833s82.833-37.085 82.833-82.833z" fill="#fed9ca"/><path d="m165.682 281.633c0 27.449 22.251 49.7 49.7 49.7s49.7-22.251 49.7-49.7h33.133c0 45.748-37.086 82.833-82.833 82.833s-82.833-37.086-82.833-82.833z" fill="#6fa9e8"/><circle cx="389.321" cy="422.45" fill="#ff5959" r="74.55"/><path d="m426.08 435.779-9.086-9.086c-2.343-2.343-2.343-6.142 0-8.485l9.086-9.086c2.343-2.343 2.343-6.142 0-8.485l-14.943-14.943c-2.343-2.343-6.142-2.343-8.485 0l-9.086 9.086c-2.343 2.343-6.142 2.343-8.485 0l-9.086-9.086c-2.343-2.343-6.142-2.343-8.485 0l-14.944 14.943c-2.343 2.343-2.343 6.142 0 8.485l9.086 9.086c2.343 2.343 2.343 6.142 0 8.485l-9.086 9.086c-2.343 2.343-2.343 6.142 0 8.485l14.944 14.943c2.343 2.343 6.142 2.343 8.485 0l9.086-9.086c2.343-2.343 6.142-2.343 8.485 0l9.086 9.086c2.343 2.343 6.142 2.343 8.485 0l14.943-14.943c2.343-2.343 2.343-6.142 0-8.485z" fill="#eef2f5"/><path d="m91.905 463.867v-49.7c0-4.142 3.358-7.5 7.5-7.5s7.5 3.358 7.5 7.5v49.7z" fill="#4876c7"/><path d="m256.798 0h-82.832c-22.874 0-41.417 18.543-41.417 41.417v24.85h24.848c9.15 0 16.567-7.417 16.567-16.567v-8.284h82.834v8.284c0 9.15 7.417 16.567 16.567 16.567h24.85v-24.85c0-22.874-18.543-41.417-41.417-41.417z" fill="#a3816a"/><path d="m265.083 48.917h-99.401c-4.142 0-7.5-3.358-7.5-7.5s3.358-7.5 7.5-7.5h99.401c4.142 0 7.5 3.358 7.5 7.5s-3.358 7.5-7.5 7.5z" fill="#806553"/><path d="m256.798 0h-23c22.874 0 41.417 18.543 41.417 41.417v124.252c0 41.843-31.031 76.419-71.332 82.02 3.761.523 7.596.813 11.5.813 45.747 0 82.832-37.085 82.832-82.833v-124.252c0-22.874-18.543-41.417-41.417-41.417z" fill="#fec1a8"/><path d="m275.215 41.417v24.85h23v-24.85c0-22.874-18.543-41.417-41.417-41.417h-23c22.874 0 41.417 18.543 41.417 41.417z" fill="#806553"/><path d="m389.321 347.9c-3.911 0-7.751.305-11.5.885 35.712 5.53 63.05 36.403 63.05 73.665 0 37.261-27.338 68.134-63.05 73.665 3.749.581 7.589.885 11.5.885 41.173 0 74.55-33.377 74.55-74.55s-33.377-74.55-74.55-74.55z" fill="#e64040"/></svg>