<svg id="Capa_1" enable-background="new 0 0 512 512" height="512" viewBox="0 0 512 512" width="512" xmlns="http://www.w3.org/2000/svg" xmlns:xlink="http://www.w3.org/1999/xlink"><linearGradient id="SVGID_1_" gradientUnits="userSpaceOnUse" x1="432.334" x2="198.334" y1="502.645" y2="192.646"><stop offset="0" stop-color="#c6d1ff"/><stop offset=".5834" stop-color="#e6d5f4"/><stop offset=".997" stop-color="#ffd9ec"/></linearGradient><linearGradient id="SVGID_2_" gradientUnits="userSpaceOnUse" x1="256" x2="256" y1="128.326" y2="389.736"><stop offset=".0028" stop-color="#ff7eb8" stop-opacity="0"/><stop offset="1" stop-color="#ff7eb8" stop-opacity=".6"/></linearGradient><g><g><path d="m501.873 153.583c-22.357-56.888-91.226-91.003-149.556-68.427-66.582 25.77-44.506 131.673-104.983 153.088-32.669 11.568-80.962-31.644-113.969-38.271-60.821-12.21-115.881 30.705-129.439 90.134-13.832 60.63 8.353 141.61 74.967 158.066 79.35 19.602 120.683-51.729 187.249-72.211 68.31-21.019 144.263 28.622 200.814-31.776 41.78-44.62 57.055-134.271 34.917-190.603z" fill="url(#SVGID_1_)"/></g><g><g><g><path d="m432.187 389.736h-352.375c-11.046 0-20-8.954-20-20v-221.41c0-11.046 8.954-20 20-20h352.375c11.046 0 20 8.954 20 20v221.41c0 11.046-8.954 20-20 20z" fill="#9fb0fe"/><g fill="#8399fe"><path d="m452.19 148.331v84.5c-12.55 10.89-28.93 17.49-46.86 17.49-39.5 0-71.52-32.02-71.52-71.51 0-19.7 7.97-37.55 20.86-50.48h77.52c11.04 0 20 8.95 20 20z"/><path d="m452.19 148.331v25.21l-177.91 136.67c-5.22 4.01-11.71 6.21-18.28 6.21s-13.06-2.2-18.28-6.21l-177.91-136.67v-25.21c0-11.05 8.96-20 20-20h352.38c11.04 0 20 8.95 20 20z"/><path d="m262.092 223.711 190.096 146.025c0 11.046-8.954 20-20 20h-352.376c-11.046 0-20-8.954-20-20l190.096-146.025c3.593-2.76 8.591-2.76 12.184 0z"/></g><path d="m324.49 271.641-50.21 38.57c-5.22 4.01-11.71 6.21-18.28 6.21s-13.06-2.2-18.28-6.21l-50.21-38.57 62.4-47.93c3.59-2.76 8.59-2.76 12.18 0z" fill="#6583fe"/><path d="m249.908 294.352-190.096-146.026c0-11.046 8.954-20 20-20h352.375c11.046 0 20 8.954 20 20l-190.095 146.026c-3.593 2.759-8.591 2.759-12.184 0z" fill="#b7c5ff"/></g><g><path d="m370.947 363.125h-32.134c-2.762 0-5-2.238-5-5v-22.154c0-2.761 2.238-5 5-5h32.134c2.762 0 5 2.239 5 5v22.154c0 2.762-2.238 5-5 5z" fill="#02ffb3"/><g><g><g><path d="m311.871 342.743h-27.833c-2.762 0-5-2.239-5-5s2.238-5 5-5h27.833c2.762 0 5 2.239 5 5s-2.238 5-5 5z" fill="#fff"/></g></g><g><g><path d="m311.871 363.125h-97.833c-2.762 0-5-2.239-5-5s2.238-5 5-5h97.833c2.762 0 5 2.239 5 5 0 2.762-2.238 5-5 5z" fill="#fff"/></g></g></g></g><path d="m432.187 389.736h-352.375c-11.046 0-20-8.954-20-20v-221.41c0-11.046 8.954-20 20-20h352.375c11.046 0 20 8.954 20 20v221.41c0 11.046-8.954 20-20 20z" fill="url(#SVGID_2_)"/><g><ellipse cx="405.33" cy="153.593" fill="#ff5ba8" rx="71.517" ry="71.517" transform="matrix(.16 -.987 .987 .16 188.793 529.087)"/></g><path d="m374.114 129.204 10.206 24.389-10.206 24.389c-1.733 4.142 2.448 8.292 6.577 6.528l61.619-26.319c4.048-1.729 4.048-7.467 0-9.196l-61.619-26.319c-4.129-1.764-8.31 2.386-6.577 6.528z" fill="#fff"/><path d="m407.601 158.261-30.725 13.13 7.442-17.8-7.451-17.8 30.734 13.13c3.833 1.64 3.833 7.71 0 9.34z" fill="#ffdbed"/></g><path d="m330.828 81.671c-3.714 0-7.427-1.413-10.253-4.24-5.654-5.654-5.654-14.853 0-20.506 5.651-5.652 14.852-5.654 20.505 0 5.654 5.654 5.654 14.853 0 20.506-2.826 2.827-6.539 4.24-10.252 4.24zm0-18.991c-1.152 0-2.305.438-3.183 1.316-1.754 1.754-1.754 4.609 0 6.364 1.756 1.754 4.608 1.755 6.364 0 1.754-1.754 1.754-4.609 0-6.364-.877-.877-2.03-1.316-3.181-1.316z" fill="#00eca2"/><path d="m218.538 459.315c-3.713 0-7.427-1.414-10.253-4.24-5.654-5.654-5.654-14.853 0-20.506 5.652-5.653 14.854-5.653 20.506 0 5.654 5.654 5.654 14.853 0 20.506-2.826 2.827-6.54 4.24-10.253 4.24zm0-18.991c-1.152 0-2.305.438-3.183 1.316-1.754 1.754-1.754 4.609 0 6.364 1.756 1.755 4.609 1.755 6.365 0 1.754-1.754 1.754-4.609 0-6.364-.877-.877-2.03-1.316-3.182-1.316z" fill="#00eca2"/><path d="m294.78 94.547c-1.279 0-2.56-.488-3.535-1.464l-5.965-5.964-5.965 5.964c-1.951 1.952-5.119 1.952-7.07 0-1.953-1.953-1.953-5.119 0-7.071l9.5-9.5c1.951-1.952 5.119-1.952 7.07 0l9.5 9.5c1.953 1.953 1.953 5.119 0 7.071-.975.975-2.255 1.464-3.535 1.464z" fill="#ff7eb8"/><path d="m439.746 440.322c-1.279 0-2.56-.488-3.535-1.464l-5.965-5.964-5.965 5.964c-1.951 1.952-5.119 1.952-7.07 0-1.953-1.953-1.953-5.119 0-7.071l9.5-9.5c1.951-1.952 5.119-1.952 7.07 0l9.5 9.5c1.953 1.953 1.953 5.119 0 7.071-.975.975-2.256 1.464-3.535 1.464z" fill="#ff7eb8"/><path d="m178.884 445.072c-1.279 0-2.56-.488-3.535-1.464l-5.965-5.964-5.965 5.964c-1.951 1.952-5.119 1.952-7.07 0-1.953-1.953-1.953-5.119 0-7.071l9.5-9.5c1.951-1.952 5.119-1.952 7.07 0l9.5 9.5c1.953 1.953 1.953 5.119 0 7.071-.976.975-2.256 1.464-3.535 1.464z" fill="#6583fe"/></g></g></svg>