<svg enable-background="new 0 0 110 110" height="512" viewBox="0 0 110 110" width="512" xmlns="http://www.w3.org/2000/svg"><path d="m49.562569 41.884636h10.811527v14.708706h-10.811527z" fill="#f7be56"/><path d="m63.6830292 82.8408813v-28.4778594l-1.7366638-.9510918-6.9780274 1.3804588-6.9780273-1.3804588-.2986451.1635437v29.2654075z" fill="#d5d6db"/><path d="m72.9427948 60.1301613c-.8311691-.9146461-1.809227-1.6857491-2.8941269-2.2799492l-6.9633217-3.8154602-1.1383209-.6242523-.664299.1302071c-.4573021 3.6619263-2.2164917 16.1297951-6.3090477 28.2571983-4.0925179-12.124054-5.8550529-24.588623-6.3123589-28.2538528l-.6709862-.1335526-1.1216011.6142235-6.9833412 3.825489c-1.0848999.5942001-2.0629578 1.365303-2.8908234 2.2799492-1.8593445 2.0462379-2.8874817 4.7100792-2.8874817 7.474041v13.1359024c0 2.1862869 1.7723312 3.9586182 3.9586143 3.9586182h33.8059656c2.1862793 0 3.9586105-1.7723312 3.9586105-3.9586182v-13.1359024c0-2.7639618-1.0281372-5.4278031-2.8874817-7.474041z" fill="#d5d6db"/><path d="m57.8701668 57.3408661-1.4490509-2.5098763-1.4527779-.0386009-1.4453659.0386009-1.449089 2.5098763 1.4203338 2.4600754-1.4203338 19.476921 2.8981399 4.8287125 2.8981438-4.6282806-1.4206887-19.6766854z" fill="#27a2db"/><path d="m60.3740959 50.6510277-5.4057617 4.141365 4.4932098 5.797905 2.4848175-7.17836z" fill="#ebf0f3"/><path d="m49.5625687 50.6510277 5.4057655 4.141365-4.4932137 5.797905-2.4848136-7.17836z" fill="#ebf0f3"/><g fill="#fcd462"><ellipse cx="63.083" cy="39.377" rx="2.136" ry="1.024" transform="matrix(.072 -.997 .997 .072 19.295 99.482)"/><ellipse cx="46.812" cy="39.377" rx="1.024" ry="2.136" transform="matrix(.997 -.072 .072 .997 -2.697 3.45)"/><path d="m62.898407 41.622879-.3186226-9.4049644-1.1151657-3.0324364-6.5171089-1.7579365-6.5171051 1.7579365-1.1151657 3.0324364-.3186226 9.4049644s-.3717155 2.2853165.477932 3.9553528c.8496475 1.6700401 1.6461945 2.4326553 2.761364 3.5455971 1.1151657 1.1129379 2.5728836 1.4580345 4.7115974 1.5271988 2.1387177-.0691643 3.5964355-.4142609 4.7116013-1.5271988 1.1151695-1.1129417 1.9117126-1.8755569 2.761364-3.5455971.8496474-1.6700363.4779319-3.9553528.4779319-3.9553528z"/></g><path d="m63.9467926 29.9522362c-.8635445-2.4728203-2.158844-2.4335785-2.158844-2.4335785-1.766346-2.6690979-7.0652046-1.9233227-9.140152-1.6877995-2.0748901.2354908-4.7940331 2.3158169-6.1286087 5.8876972-1.3345718 3.5718498-.5494652 5.4951706 0 6.5942001.0182304.0364151.0387268.0676003.0575027.1029053.1622124 1.3792458.3314362 2.5927429.4110413 3.1479721.0264854.1845474.1845322.321003.3709641.321003h.1594505c.207016 0 .374836-.1678238.374836-.374836v-.9055328c0-.2576256-.0316963-.6768646-.0617981-.932724-.0823822-.700325.0617981-1.5942802.0617981-1.5942802 0 .3532486.4579277.5494995.4579277.5494995-.1142769-.7544403.0110703-2.347393.0445709-2.8688393.0029984.0156708.0043869.0258026.0077477.0427628.1177635.5887451.7850723 1.1382751.7850723 1.1382751-.1962624-.5887756 0-2.5120926 0-2.5120926.2747841.4317665.5495186 1.0205383.5495186 1.0205383.2355156-1.5700417.4317017-2.1980553.4317017-2.1980553.0785446.5102577.2355309.706501.2355309.706501.1570206-.7850227.4710274-1.2167892.4710274-1.2167892.078495.6672897.392498.54953.392498.54953s-.0392151-.6280136.353302-1.5700378c.3924789-.9420567 1.2560234-.5102882 2.7867851-.3532848 1.5308304.1570034 5.1026726.1570034 5.1026726.1570034 1.413063-.3924942 2.5120697 3.4933662 2.9438972 6.3194656.2840118 1.8592758.1773338 3.0219994.0710945 3.5999451-.0423965.2306633.1339684.4429512.3684959.4429512.1695633 0 .3188744-.1134644.3619766-.277462.0776978-.29562.1879921-.8598366.2581635-1.8421135.1177483-1.6485558.7850456-3.1793518.9420738-4.3568954.1569748-1.1775475.3532791-2.9831085-.5102463-5.4559288z" fill="#3a556a"/><path d="m101.0179291 48.9097557c-2.8083039-20.9103146-19.5582581-37.4556599-40.5708237-39.9314127v3.6712332c19.0498428 2.4443378 34.2247314 17.4570923 36.9187241 36.4378281l-2.8957138.1408348 5.0680466 6.1420937 4.4480896-6.6049156z" fill="#3a556a"/><path d="m101.1217957 60.6029549h-3.6712341c-2.4334412 18.965168-17.3329926 34.0883446-36.1852303 36.8808556l-.1545715-3.1768265-6.1421471 5.0680466 6.6049728 4.4480362-.1305504-2.6844788c20.7905998-2.9089966 37.2129631-19.60775 39.6787606-40.5356331z" fill="#fcd462"/><path d="m12.6488533 61.6987419 2.8810291-.1401138-5.0680456-6.1420937-4.4480915 6.6049194 2.9776087-.1448441c3.0184746 20.6591644 19.6711864 36.9463577 40.5058823 39.4011459v-3.6712341c-18.8809262-2.4215392-33.9491721-17.1868667-36.848383-35.9077796z" fill="#44c4a1"/><path d="m53.8554764 10.6250267-6.6048584-4.448092.1506767 3.0993753c-20.269453 3.3335114-36.1657104 19.8185291-38.5879745 40.3768349h3.6712322c2.3860683-18.6047592 16.7556839-33.5052567 35.0951157-36.7106628l.1337738 2.7505331z" fill="#ebf0f3"/></svg>